<mxfile host="app.diagrams.net" modified="2022-11-03T07:42:56.097Z" agent="5.0 (Windows NT 10.0; Win64; x64) AppleWebKit/537.36 (KHTML, like Gecko) Chrome/107.0.0.0 Safari/537.36" etag="XZUYia3DbvzBcDN5QDqp" version="20.5.1" type="github">
  <diagram id="qlSu_hCytlXmXeY36GiM" name="PÃ¡gina-1">
    <mxGraphModel dx="3443" dy="1570" grid="1" gridSize="10" guides="1" tooltips="1" connect="1" arrows="1" fold="1" page="1" pageScale="1" pageWidth="827" pageHeight="1169" math="0" shadow="0">
      <root>
        <mxCell id="0" />
        <mxCell id="1" parent="0" />
        <mxCell id="x2QwnfS2ca_xo_bsKNTp-10" style="edgeStyle=orthogonalEdgeStyle;rounded=0;orthogonalLoop=1;jettySize=auto;html=1;exitX=0.5;exitY=1;exitDx=0;exitDy=0;entryX=0.5;entryY=0;entryDx=0;entryDy=0;" parent="1" source="x2QwnfS2ca_xo_bsKNTp-1" target="x2QwnfS2ca_xo_bsKNTp-2" edge="1">
          <mxGeometry relative="1" as="geometry" />
        </mxCell>
        <mxCell id="x2QwnfS2ca_xo_bsKNTp-17" value="" style="edgeStyle=orthogonalEdgeStyle;rounded=0;orthogonalLoop=1;jettySize=auto;html=1;" parent="1" source="x2QwnfS2ca_xo_bsKNTp-1" edge="1">
          <mxGeometry relative="1" as="geometry">
            <mxPoint x="-660" y="30" as="targetPoint" />
          </mxGeometry>
        </mxCell>
        <mxCell id="x2QwnfS2ca_xo_bsKNTp-1" value="cliente" style="whiteSpace=wrap;html=1;align=center;" parent="1" vertex="1">
          <mxGeometry x="-810" y="10" width="100" height="40" as="geometry" />
        </mxCell>
        <mxCell id="x2QwnfS2ca_xo_bsKNTp-6" style="edgeStyle=orthogonalEdgeStyle;rounded=0;orthogonalLoop=1;jettySize=auto;html=1;exitX=0.5;exitY=1;exitDx=0;exitDy=0;" parent="1" source="x2QwnfS2ca_xo_bsKNTp-2" target="x2QwnfS2ca_xo_bsKNTp-5" edge="1">
          <mxGeometry relative="1" as="geometry" />
        </mxCell>
        <mxCell id="x2QwnfS2ca_xo_bsKNTp-2" value="compra" style="shape=rhombus;perimeter=rhombusPerimeter;whiteSpace=wrap;html=1;align=center;" parent="1" vertex="1">
          <mxGeometry x="-820" y="100" width="120" height="60" as="geometry" />
        </mxCell>
        <mxCell id="x2QwnfS2ca_xo_bsKNTp-4" value="Attribute" style="ellipse;whiteSpace=wrap;html=1;align=center;" parent="1" vertex="1">
          <mxGeometry x="-660" y="200" width="100" height="40" as="geometry" />
        </mxCell>
        <mxCell id="x2QwnfS2ca_xo_bsKNTp-8" style="edgeStyle=orthogonalEdgeStyle;rounded=0;orthogonalLoop=1;jettySize=auto;html=1;" parent="1" source="x2QwnfS2ca_xo_bsKNTp-5" target="x2QwnfS2ca_xo_bsKNTp-4" edge="1">
          <mxGeometry relative="1" as="geometry" />
        </mxCell>
        <mxCell id="x2QwnfS2ca_xo_bsKNTp-5" value="producto" style="rounded=1;arcSize=10;whiteSpace=wrap;html=1;align=center;" parent="1" vertex="1">
          <mxGeometry x="-810" y="200" width="100" height="40" as="geometry" />
        </mxCell>
        <mxCell id="x2QwnfS2ca_xo_bsKNTp-18" value="" style="edgeStyle=orthogonalEdgeStyle;rounded=0;orthogonalLoop=1;jettySize=auto;html=1;" parent="1" source="x2QwnfS2ca_xo_bsKNTp-12" target="x2QwnfS2ca_xo_bsKNTp-15" edge="1">
          <mxGeometry relative="1" as="geometry" />
        </mxCell>
        <mxCell id="Csu2EXhS7KZmmG47xOdv-5" value="" style="edgeStyle=orthogonalEdgeStyle;rounded=0;orthogonalLoop=1;jettySize=auto;html=1;" parent="1" source="x2QwnfS2ca_xo_bsKNTp-12" target="x2QwnfS2ca_xo_bsKNTp-23" edge="1">
          <mxGeometry relative="1" as="geometry" />
        </mxCell>
        <mxCell id="Csu2EXhS7KZmmG47xOdv-7" style="edgeStyle=orthogonalEdgeStyle;rounded=0;orthogonalLoop=1;jettySize=auto;html=1;exitX=1;exitY=0.75;exitDx=0;exitDy=0;entryX=0;entryY=0;entryDx=0;entryDy=0;" parent="1" source="x2QwnfS2ca_xo_bsKNTp-12" target="Csu2EXhS7KZmmG47xOdv-1" edge="1">
          <mxGeometry relative="1" as="geometry" />
        </mxCell>
        <mxCell id="Csu2EXhS7KZmmG47xOdv-8" style="edgeStyle=orthogonalEdgeStyle;rounded=0;orthogonalLoop=1;jettySize=auto;html=1;exitX=1;exitY=1;exitDx=0;exitDy=0;entryX=0.5;entryY=0;entryDx=0;entryDy=0;" parent="1" source="x2QwnfS2ca_xo_bsKNTp-12" target="Csu2EXhS7KZmmG47xOdv-2" edge="1">
          <mxGeometry relative="1" as="geometry" />
        </mxCell>
        <mxCell id="x2QwnfS2ca_xo_bsKNTp-12" value="proveedor" style="whiteSpace=wrap;html=1;align=center;" parent="1" vertex="1">
          <mxGeometry x="-810" y="380" width="100" height="40" as="geometry" />
        </mxCell>
        <mxCell id="x2QwnfS2ca_xo_bsKNTp-25" value="" style="edgeStyle=orthogonalEdgeStyle;rounded=0;orthogonalLoop=1;jettySize=auto;html=1;" parent="1" source="x2QwnfS2ca_xo_bsKNTp-15" target="x2QwnfS2ca_xo_bsKNTp-5" edge="1">
          <mxGeometry relative="1" as="geometry" />
        </mxCell>
        <mxCell id="x2QwnfS2ca_xo_bsKNTp-15" value="provee" style="shape=rhombus;perimeter=rhombusPerimeter;whiteSpace=wrap;html=1;align=center;" parent="1" vertex="1">
          <mxGeometry x="-820" y="280" width="120" height="60" as="geometry" />
        </mxCell>
        <mxCell id="x2QwnfS2ca_xo_bsKNTp-21" value="Attribute" style="ellipse;whiteSpace=wrap;html=1;align=center;" parent="1" vertex="1">
          <mxGeometry x="-656" y="10" width="100" height="40" as="geometry" />
        </mxCell>
        <mxCell id="x2QwnfS2ca_xo_bsKNTp-23" value="&lt;font style=&quot;vertical-align: inherit;&quot;&gt;&lt;font style=&quot;vertical-align: inherit;&quot;&gt;Direccion&lt;br&gt;&lt;/font&gt;&lt;/font&gt;" style="ellipse;whiteSpace=wrap;html=1;align=center;" parent="1" vertex="1">
          <mxGeometry x="-560" y="380" width="100" height="40" as="geometry" />
        </mxCell>
        <mxCell id="Csu2EXhS7KZmmG47xOdv-1" value="&lt;font style=&quot;vertical-align: inherit;&quot;&gt;&lt;font style=&quot;vertical-align: inherit;&quot;&gt;&lt;font style=&quot;vertical-align: inherit;&quot;&gt;&lt;font style=&quot;vertical-align: inherit;&quot;&gt;nombre&lt;/font&gt;&lt;/font&gt;&lt;br&gt;&lt;/font&gt;&lt;/font&gt;" style="ellipse;whiteSpace=wrap;html=1;" parent="1" vertex="1">
          <mxGeometry x="-660" y="410" width="90" height="40" as="geometry" />
        </mxCell>
        <mxCell id="Csu2EXhS7KZmmG47xOdv-2" value="&lt;font style=&quot;vertical-align: inherit;&quot;&gt;&lt;font style=&quot;vertical-align: inherit;&quot;&gt;&lt;font style=&quot;vertical-align: inherit;&quot;&gt;&lt;font style=&quot;vertical-align: inherit;&quot;&gt;RFC&lt;/font&gt;&lt;/font&gt;&lt;br&gt;&lt;/font&gt;&lt;/font&gt;" style="ellipse;whiteSpace=wrap;html=1;" parent="1" vertex="1">
          <mxGeometry x="-740" y="450" width="95" height="40" as="geometry" />
        </mxCell>
        <mxCell id="mb-6NxvzqfsHTubnPMPA-1" style="edgeStyle=orthogonalEdgeStyle;rounded=0;orthogonalLoop=1;jettySize=auto;html=1;exitX=1;exitY=1;exitDx=0;exitDy=0;" edge="1" parent="1" source="Csu2EXhS7KZmmG47xOdv-10" target="Csu2EXhS7KZmmG47xOdv-59">
          <mxGeometry relative="1" as="geometry" />
        </mxCell>
        <mxCell id="mb-6NxvzqfsHTubnPMPA-2" style="edgeStyle=orthogonalEdgeStyle;rounded=0;orthogonalLoop=1;jettySize=auto;html=1;exitX=0.75;exitY=1;exitDx=0;exitDy=0;" edge="1" parent="1" source="Csu2EXhS7KZmmG47xOdv-10" target="Csu2EXhS7KZmmG47xOdv-50">
          <mxGeometry relative="1" as="geometry">
            <Array as="points">
              <mxPoint x="130" y="220" />
              <mxPoint x="130" y="220" />
            </Array>
          </mxGeometry>
        </mxCell>
        <mxCell id="mb-6NxvzqfsHTubnPMPA-3" style="edgeStyle=orthogonalEdgeStyle;rounded=0;orthogonalLoop=1;jettySize=auto;html=1;exitX=0.5;exitY=1;exitDx=0;exitDy=0;entryX=0.013;entryY=0.667;entryDx=0;entryDy=0;entryPerimeter=0;" edge="1" parent="1" source="Csu2EXhS7KZmmG47xOdv-10" target="Csu2EXhS7KZmmG47xOdv-62">
          <mxGeometry relative="1" as="geometry" />
        </mxCell>
        <mxCell id="mb-6NxvzqfsHTubnPMPA-4" style="edgeStyle=orthogonalEdgeStyle;rounded=0;orthogonalLoop=1;jettySize=auto;html=1;exitX=0.25;exitY=1;exitDx=0;exitDy=0;entryX=0;entryY=0.5;entryDx=0;entryDy=0;" edge="1" parent="1" source="Csu2EXhS7KZmmG47xOdv-10" target="Csu2EXhS7KZmmG47xOdv-61">
          <mxGeometry relative="1" as="geometry" />
        </mxCell>
        <mxCell id="mb-6NxvzqfsHTubnPMPA-5" style="edgeStyle=orthogonalEdgeStyle;rounded=0;orthogonalLoop=1;jettySize=auto;html=1;exitX=0;exitY=1;exitDx=0;exitDy=0;entryX=0;entryY=0.5;entryDx=0;entryDy=0;" edge="1" parent="1" source="Csu2EXhS7KZmmG47xOdv-10" target="Csu2EXhS7KZmmG47xOdv-60">
          <mxGeometry relative="1" as="geometry" />
        </mxCell>
        <mxCell id="Csu2EXhS7KZmmG47xOdv-10" value="&lt;font style=&quot;vertical-align: inherit;&quot;&gt;&lt;font style=&quot;vertical-align: inherit;&quot;&gt;auto&lt;/font&gt;&lt;/font&gt;" style="rounded=1;whiteSpace=wrap;html=1;" parent="1" vertex="1">
          <mxGeometry x="40" y="80" width="120" height="40" as="geometry" />
        </mxCell>
        <mxCell id="Csu2EXhS7KZmmG47xOdv-27" value="" style="edgeStyle=orthogonalEdgeStyle;rounded=0;orthogonalLoop=1;jettySize=auto;html=1;" parent="1" source="Csu2EXhS7KZmmG47xOdv-11" target="Csu2EXhS7KZmmG47xOdv-13" edge="1">
          <mxGeometry relative="1" as="geometry" />
        </mxCell>
        <mxCell id="Csu2EXhS7KZmmG47xOdv-44" style="edgeStyle=orthogonalEdgeStyle;rounded=0;orthogonalLoop=1;jettySize=auto;html=1;exitX=1;exitY=1;exitDx=0;exitDy=0;entryX=0.556;entryY=-0.022;entryDx=0;entryDy=0;entryPerimeter=0;" parent="1" source="Csu2EXhS7KZmmG47xOdv-11" target="Csu2EXhS7KZmmG47xOdv-35" edge="1">
          <mxGeometry relative="1" as="geometry" />
        </mxCell>
        <mxCell id="Csu2EXhS7KZmmG47xOdv-45" style="edgeStyle=orthogonalEdgeStyle;rounded=0;orthogonalLoop=1;jettySize=auto;html=1;entryX=0;entryY=0.5;entryDx=0;entryDy=0;exitX=0.803;exitY=1.041;exitDx=0;exitDy=0;exitPerimeter=0;" parent="1" source="Csu2EXhS7KZmmG47xOdv-11" target="Csu2EXhS7KZmmG47xOdv-30" edge="1">
          <mxGeometry relative="1" as="geometry" />
        </mxCell>
        <mxCell id="Csu2EXhS7KZmmG47xOdv-46" style="edgeStyle=orthogonalEdgeStyle;rounded=0;orthogonalLoop=1;jettySize=auto;html=1;exitX=0.5;exitY=1;exitDx=0;exitDy=0;entryX=0;entryY=0.5;entryDx=0;entryDy=0;" parent="1" source="Csu2EXhS7KZmmG47xOdv-11" target="Csu2EXhS7KZmmG47xOdv-34" edge="1">
          <mxGeometry relative="1" as="geometry">
            <Array as="points">
              <mxPoint x="-190" y="120" />
              <mxPoint x="-190" y="240" />
            </Array>
          </mxGeometry>
        </mxCell>
        <mxCell id="Csu2EXhS7KZmmG47xOdv-47" style="edgeStyle=orthogonalEdgeStyle;rounded=0;orthogonalLoop=1;jettySize=auto;html=1;exitX=0.25;exitY=1;exitDx=0;exitDy=0;entryX=0;entryY=0.5;entryDx=0;entryDy=0;" parent="1" source="Csu2EXhS7KZmmG47xOdv-11" target="Csu2EXhS7KZmmG47xOdv-33" edge="1">
          <mxGeometry relative="1" as="geometry" />
        </mxCell>
        <mxCell id="Csu2EXhS7KZmmG47xOdv-48" style="edgeStyle=orthogonalEdgeStyle;rounded=0;orthogonalLoop=1;jettySize=auto;html=1;exitX=0;exitY=1;exitDx=0;exitDy=0;entryX=0;entryY=0.5;entryDx=0;entryDy=0;" parent="1" source="Csu2EXhS7KZmmG47xOdv-11" target="Csu2EXhS7KZmmG47xOdv-32" edge="1">
          <mxGeometry relative="1" as="geometry" />
        </mxCell>
        <mxCell id="Csu2EXhS7KZmmG47xOdv-49" style="edgeStyle=orthogonalEdgeStyle;rounded=0;orthogonalLoop=1;jettySize=auto;html=1;exitX=0;exitY=0.5;exitDx=0;exitDy=0;entryX=0;entryY=0.5;entryDx=0;entryDy=0;" parent="1" source="Csu2EXhS7KZmmG47xOdv-11" target="Csu2EXhS7KZmmG47xOdv-31" edge="1">
          <mxGeometry relative="1" as="geometry" />
        </mxCell>
        <mxCell id="Csu2EXhS7KZmmG47xOdv-11" value="&lt;font style=&quot;vertical-align: inherit;&quot;&gt;&lt;font style=&quot;vertical-align: inherit;&quot;&gt;Cliente&lt;/font&gt;&lt;/font&gt;" style="rounded=0;whiteSpace=wrap;html=1;" parent="1" vertex="1">
          <mxGeometry x="-240" y="70" width="120" height="50" as="geometry" />
        </mxCell>
        <mxCell id="Csu2EXhS7KZmmG47xOdv-18" style="edgeStyle=orthogonalEdgeStyle;rounded=0;orthogonalLoop=1;jettySize=auto;html=1;exitX=0;exitY=0;exitDx=0;exitDy=0;entryX=1;entryY=0.5;entryDx=0;entryDy=0;" parent="1" source="Csu2EXhS7KZmmG47xOdv-12" target="Csu2EXhS7KZmmG47xOdv-14" edge="1">
          <mxGeometry relative="1" as="geometry">
            <Array as="points">
              <mxPoint x="380" y="50" />
              <mxPoint x="340" y="50" />
              <mxPoint x="340" y="85" />
            </Array>
          </mxGeometry>
        </mxCell>
        <mxCell id="mb-6NxvzqfsHTubnPMPA-22" style="edgeStyle=orthogonalEdgeStyle;rounded=0;orthogonalLoop=1;jettySize=auto;html=1;exitX=0.75;exitY=1;exitDx=0;exitDy=0;entryX=0.5;entryY=0;entryDx=0;entryDy=0;" edge="1" parent="1" source="Csu2EXhS7KZmmG47xOdv-12" target="Csu2EXhS7KZmmG47xOdv-15">
          <mxGeometry relative="1" as="geometry" />
        </mxCell>
        <mxCell id="Csu2EXhS7KZmmG47xOdv-12" value="&lt;font style=&quot;vertical-align: inherit;&quot;&gt;&lt;font style=&quot;vertical-align: inherit;&quot;&gt;concesionario&lt;/font&gt;&lt;/font&gt;" style="rounded=0;whiteSpace=wrap;html=1;" parent="1" vertex="1">
          <mxGeometry x="380" y="20" width="120" height="60" as="geometry" />
        </mxCell>
        <mxCell id="Csu2EXhS7KZmmG47xOdv-28" value="" style="edgeStyle=orthogonalEdgeStyle;rounded=0;orthogonalLoop=1;jettySize=auto;html=1;" parent="1" source="Csu2EXhS7KZmmG47xOdv-13" target="Csu2EXhS7KZmmG47xOdv-10" edge="1">
          <mxGeometry relative="1" as="geometry" />
        </mxCell>
        <mxCell id="Csu2EXhS7KZmmG47xOdv-13" value="&lt;font style=&quot;vertical-align: inherit;&quot;&gt;&lt;font style=&quot;vertical-align: inherit;&quot;&gt;Compra&lt;/font&gt;&lt;/font&gt;" style="rhombus;whiteSpace=wrap;html=1;" parent="1" vertex="1">
          <mxGeometry x="-60" y="60" width="80" height="80" as="geometry" />
        </mxCell>
        <mxCell id="Csu2EXhS7KZmmG47xOdv-21" style="edgeStyle=orthogonalEdgeStyle;rounded=0;orthogonalLoop=1;jettySize=auto;html=1;exitX=0;exitY=0.5;exitDx=0;exitDy=0;" parent="1" source="Csu2EXhS7KZmmG47xOdv-14" target="Csu2EXhS7KZmmG47xOdv-10" edge="1">
          <mxGeometry relative="1" as="geometry">
            <Array as="points">
              <mxPoint x="180" y="85" />
              <mxPoint x="180" y="85" />
            </Array>
          </mxGeometry>
        </mxCell>
        <mxCell id="Csu2EXhS7KZmmG47xOdv-14" value="&lt;font style=&quot;vertical-align: inherit;&quot;&gt;&lt;font style=&quot;vertical-align: inherit;&quot;&gt;vende&lt;/font&gt;&lt;/font&gt;" style="rhombus;whiteSpace=wrap;html=1;" parent="1" vertex="1">
          <mxGeometry x="210" y="60" width="90" height="50" as="geometry" />
        </mxCell>
        <mxCell id="mb-6NxvzqfsHTubnPMPA-31" value="" style="edgeStyle=orthogonalEdgeStyle;rounded=0;orthogonalLoop=1;jettySize=auto;html=1;" edge="1" parent="1" source="Csu2EXhS7KZmmG47xOdv-15" target="mb-6NxvzqfsHTubnPMPA-19">
          <mxGeometry relative="1" as="geometry" />
        </mxCell>
        <mxCell id="Csu2EXhS7KZmmG47xOdv-15" value="&lt;font style=&quot;vertical-align: inherit;&quot;&gt;&lt;font style=&quot;vertical-align: inherit;&quot;&gt;realiza&lt;/font&gt;&lt;/font&gt;" style="rhombus;whiteSpace=wrap;html=1;" parent="1" vertex="1">
          <mxGeometry x="424" y="110" width="80" height="60" as="geometry" />
        </mxCell>
        <mxCell id="Csu2EXhS7KZmmG47xOdv-16" style="edgeStyle=orthogonalEdgeStyle;rounded=0;orthogonalLoop=1;jettySize=auto;html=1;exitX=0.5;exitY=1;exitDx=0;exitDy=0;" parent="1" source="Csu2EXhS7KZmmG47xOdv-15" target="Csu2EXhS7KZmmG47xOdv-15" edge="1">
          <mxGeometry relative="1" as="geometry" />
        </mxCell>
        <mxCell id="Csu2EXhS7KZmmG47xOdv-30" value="&lt;font style=&quot;vertical-align: inherit;&quot;&gt;&lt;font style=&quot;vertical-align: inherit;&quot;&gt;nombre&lt;/font&gt;&lt;/font&gt;" style="ellipse;whiteSpace=wrap;html=1;" parent="1" vertex="1">
          <mxGeometry x="-160" y="180" width="70" height="40" as="geometry" />
        </mxCell>
        <mxCell id="Csu2EXhS7KZmmG47xOdv-31" value="&lt;font style=&quot;vertical-align: inherit;&quot;&gt;&lt;font style=&quot;vertical-align: inherit;&quot;&gt;&lt;font style=&quot;vertical-align: inherit;&quot;&gt;&lt;font style=&quot;vertical-align: inherit;&quot;&gt;codigo interno&lt;/font&gt;&lt;/font&gt;&lt;/font&gt;&lt;/font&gt;" style="ellipse;whiteSpace=wrap;html=1;" parent="1" vertex="1">
          <mxGeometry x="-200" y="340" width="70" height="40" as="geometry" />
        </mxCell>
        <mxCell id="Csu2EXhS7KZmmG47xOdv-32" value="&lt;font style=&quot;vertical-align: inherit;&quot;&gt;&lt;font style=&quot;vertical-align: inherit;&quot;&gt;telefono&lt;/font&gt;&lt;/font&gt;" style="ellipse;whiteSpace=wrap;html=1;" parent="1" vertex="1">
          <mxGeometry x="-190" y="300" width="70" height="40" as="geometry" />
        </mxCell>
        <mxCell id="Csu2EXhS7KZmmG47xOdv-33" value="&lt;font style=&quot;vertical-align: inherit;&quot;&gt;&lt;font style=&quot;vertical-align: inherit;&quot;&gt;Ciudad&lt;/font&gt;&lt;/font&gt;" style="ellipse;whiteSpace=wrap;html=1;" parent="1" vertex="1">
          <mxGeometry x="-180" y="260" width="70" height="40" as="geometry" />
        </mxCell>
        <mxCell id="Csu2EXhS7KZmmG47xOdv-34" value="&lt;font style=&quot;vertical-align: inherit;&quot;&gt;&lt;font style=&quot;vertical-align: inherit;&quot;&gt;direccion&lt;/font&gt;&lt;/font&gt;" style="ellipse;whiteSpace=wrap;html=1;" parent="1" vertex="1">
          <mxGeometry x="-170" y="220" width="70" height="40" as="geometry" />
        </mxCell>
        <mxCell id="Csu2EXhS7KZmmG47xOdv-35" value="&lt;font style=&quot;vertical-align: inherit;&quot;&gt;&lt;font style=&quot;vertical-align: inherit;&quot;&gt;RFC&lt;/font&gt;&lt;/font&gt;" style="ellipse;whiteSpace=wrap;html=1;" parent="1" vertex="1">
          <mxGeometry x="-150" y="140" width="70" height="40" as="geometry" />
        </mxCell>
        <mxCell id="Csu2EXhS7KZmmG47xOdv-50" value="&lt;font style=&quot;vertical-align: inherit;&quot;&gt;&lt;font style=&quot;vertical-align: inherit;&quot;&gt;marca&lt;/font&gt;&lt;/font&gt;" style="ellipse;whiteSpace=wrap;html=1;rounded=1;" parent="1" vertex="1">
          <mxGeometry x="119" y="250" width="70" height="30" as="geometry" />
        </mxCell>
        <mxCell id="Csu2EXhS7KZmmG47xOdv-59" value="matricula" style="ellipse;whiteSpace=wrap;html=1;" parent="1" vertex="1">
          <mxGeometry x="140" y="210" width="70" height="30" as="geometry" />
        </mxCell>
        <mxCell id="Csu2EXhS7KZmmG47xOdv-60" value="precio" style="ellipse;whiteSpace=wrap;html=1;" parent="1" vertex="1">
          <mxGeometry x="90" y="370" width="80" height="30" as="geometry" />
        </mxCell>
        <mxCell id="Csu2EXhS7KZmmG47xOdv-61" value="color" style="ellipse;whiteSpace=wrap;html=1;" parent="1" vertex="1">
          <mxGeometry x="100" y="330" width="80" height="30" as="geometry" />
        </mxCell>
        <mxCell id="Csu2EXhS7KZmmG47xOdv-62" value="&lt;font style=&quot;vertical-align: inherit;&quot;&gt;&lt;font style=&quot;vertical-align: inherit;&quot;&gt;modelo&lt;/font&gt;&lt;/font&gt;" style="ellipse;whiteSpace=wrap;html=1;" parent="1" vertex="1">
          <mxGeometry x="109" y="290" width="80" height="30" as="geometry" />
        </mxCell>
        <mxCell id="mb-6NxvzqfsHTubnPMPA-32" style="edgeStyle=orthogonalEdgeStyle;rounded=0;orthogonalLoop=1;jettySize=auto;html=1;exitX=0;exitY=0;exitDx=0;exitDy=0;entryX=1;entryY=0.75;entryDx=0;entryDy=0;" edge="1" parent="1" source="mb-6NxvzqfsHTubnPMPA-18" target="Csu2EXhS7KZmmG47xOdv-10">
          <mxGeometry relative="1" as="geometry" />
        </mxCell>
        <mxCell id="mb-6NxvzqfsHTubnPMPA-18" value="revisiones" style="swimlane;fontStyle=0;childLayout=stackLayout;horizontal=1;startSize=30;horizontalStack=0;resizeParent=1;resizeParentMax=0;resizeLast=0;collapsible=1;marginBottom=0;" vertex="1" parent="1">
          <mxGeometry x="250" y="134" width="100" height="210" as="geometry" />
        </mxCell>
        <mxCell id="mb-6NxvzqfsHTubnPMPA-19" value="codigo" style="text;strokeColor=none;fillColor=none;align=left;verticalAlign=middle;spacingLeft=4;spacingRight=4;overflow=hidden;points=[[0,0.5],[1,0.5]];portConstraint=eastwest;rotatable=0;" vertex="1" parent="mb-6NxvzqfsHTubnPMPA-18">
          <mxGeometry y="30" width="100" height="30" as="geometry" />
        </mxCell>
        <mxCell id="mb-6NxvzqfsHTubnPMPA-33" value="numero de revisiÃ³n" style="text;html=1;strokeColor=none;fillColor=none;align=left;verticalAlign=middle;whiteSpace=wrap;rounded=0;" vertex="1" parent="mb-6NxvzqfsHTubnPMPA-18">
          <mxGeometry y="60" width="100" height="30" as="geometry" />
        </mxCell>
        <mxCell id="mb-6NxvzqfsHTubnPMPA-20" value="Cambio de filtro" style="text;strokeColor=none;fillColor=none;align=left;verticalAlign=middle;spacingLeft=4;spacingRight=4;overflow=hidden;points=[[0,0.5],[1,0.5]];portConstraint=eastwest;rotatable=0;" vertex="1" parent="mb-6NxvzqfsHTubnPMPA-18">
          <mxGeometry y="90" width="100" height="30" as="geometry" />
        </mxCell>
        <mxCell id="mb-6NxvzqfsHTubnPMPA-21" value="cambio de aceite" style="text;strokeColor=none;fillColor=none;align=left;verticalAlign=middle;spacingLeft=4;spacingRight=4;overflow=hidden;points=[[0,0.5],[1,0.5]];portConstraint=eastwest;rotatable=0;" vertex="1" parent="mb-6NxvzqfsHTubnPMPA-18">
          <mxGeometry y="120" width="100" height="30" as="geometry" />
        </mxCell>
        <mxCell id="mb-6NxvzqfsHTubnPMPA-23" value="cambio de frenos" style="text;html=1;strokeColor=none;fillColor=none;align=left;verticalAlign=middle;whiteSpace=wrap;rounded=0;" vertex="1" parent="mb-6NxvzqfsHTubnPMPA-18">
          <mxGeometry y="150" width="100" height="30" as="geometry" />
        </mxCell>
        <mxCell id="mb-6NxvzqfsHTubnPMPA-24" value="otros" style="text;html=1;strokeColor=none;fillColor=none;align=left;verticalAlign=middle;whiteSpace=wrap;rounded=0;" vertex="1" parent="mb-6NxvzqfsHTubnPMPA-18">
          <mxGeometry y="180" width="100" height="30" as="geometry" />
        </mxCell>
        <mxCell id="mb-6NxvzqfsHTubnPMPA-59" value="" style="edgeStyle=orthogonalEdgeStyle;rounded=0;orthogonalLoop=1;jettySize=auto;html=1;" edge="1" parent="1" source="mb-6NxvzqfsHTubnPMPA-56">
          <mxGeometry relative="1" as="geometry">
            <mxPoint x="-519.9999999999999" y="1000" as="targetPoint" />
          </mxGeometry>
        </mxCell>
        <mxCell id="mb-6NxvzqfsHTubnPMPA-56" value="EDITORIAL" style="whiteSpace=wrap;html=1;align=center;" vertex="1" parent="1">
          <mxGeometry x="-730" y="980" width="100" height="40" as="geometry" />
        </mxCell>
        <mxCell id="mb-6NxvzqfsHTubnPMPA-60" value="" style="edgeStyle=orthogonalEdgeStyle;rounded=0;orthogonalLoop=1;jettySize=auto;html=1;exitX=1;exitY=0.5;exitDx=0;exitDy=0;" edge="1" parent="1" source="mb-6NxvzqfsHTubnPMPA-120">
          <mxGeometry relative="1" as="geometry">
            <mxPoint x="-360" y="999.78" as="sourcePoint" />
            <mxPoint x="-330" y="999.78" as="targetPoint" />
          </mxGeometry>
        </mxCell>
        <mxCell id="mb-6NxvzqfsHTubnPMPA-62" value="Attribute" style="ellipse;whiteSpace=wrap;html=1;align=center;dashed=1;" vertex="1" parent="1">
          <mxGeometry x="-895" y="610" width="100" height="40" as="geometry" />
        </mxCell>
        <mxCell id="mb-6NxvzqfsHTubnPMPA-68" value="numero_de_paginas" style="ellipse;whiteSpace=wrap;html=1;align=center;" vertex="1" parent="1">
          <mxGeometry x="200" y="1460" width="100" height="40" as="geometry" />
        </mxCell>
        <mxCell id="mb-6NxvzqfsHTubnPMPA-69" value="fecha" style="ellipse;whiteSpace=wrap;html=1;align=center;" vertex="1" parent="1">
          <mxGeometry x="219" y="1410" width="100" height="40" as="geometry" />
        </mxCell>
        <mxCell id="mb-6NxvzqfsHTubnPMPA-70" value="extensiÃ³n" style="ellipse;whiteSpace=wrap;html=1;align=center;" vertex="1" parent="1">
          <mxGeometry x="110" y="1270" width="100" height="40" as="geometry" />
        </mxCell>
        <mxCell id="mb-6NxvzqfsHTubnPMPA-71" value="telÃ©fono" style="ellipse;whiteSpace=wrap;html=1;align=center;" vertex="1" parent="1">
          <mxGeometry x="-280" y="910" width="100" height="40" as="geometry" />
        </mxCell>
        <mxCell id="mb-6NxvzqfsHTubnPMPA-72" value="domicilio" style="ellipse;whiteSpace=wrap;html=1;align=center;" vertex="1" parent="1">
          <mxGeometry x="-310" y="850" width="100" height="40" as="geometry" />
        </mxCell>
        <mxCell id="mb-6NxvzqfsHTubnPMPA-82" value="codigo de sucursal" style="ellipse;whiteSpace=wrap;html=1;align=center;fontStyle=4;" vertex="1" parent="1">
          <mxGeometry x="-340" y="780" width="100" height="40" as="geometry" />
        </mxCell>
        <mxCell id="mb-6NxvzqfsHTubnPMPA-86" value="periodicidad" style="ellipse;whiteSpace=wrap;html=1;align=center;" vertex="1" parent="1">
          <mxGeometry x="-310" y="1470" width="100" height="40" as="geometry" />
        </mxCell>
        <mxCell id="mb-6NxvzqfsHTubnPMPA-88" value="apellidos_paterno" style="ellipse;whiteSpace=wrap;html=1;align=center;" vertex="1" parent="1">
          <mxGeometry x="240" y="1079" width="100" height="40" as="geometry" />
        </mxCell>
        <mxCell id="mb-6NxvzqfsHTubnPMPA-89" value="nombre" style="ellipse;whiteSpace=wrap;html=1;align=center;" vertex="1" parent="1">
          <mxGeometry y="1090" width="100" height="40" as="geometry" />
        </mxCell>
        <mxCell id="mb-6NxvzqfsHTubnPMPA-90" value="rfc" style="ellipse;whiteSpace=wrap;html=1;align=center;fontStyle=4;" vertex="1" parent="1">
          <mxGeometry x="19" y="1040" width="100" height="40" as="geometry" />
        </mxCell>
        <mxCell id="mb-6NxvzqfsHTubnPMPA-156" value="" style="edgeStyle=orthogonalEdgeStyle;rounded=0;orthogonalLoop=1;jettySize=auto;html=1;" edge="1" parent="1" source="mb-6NxvzqfsHTubnPMPA-91" target="mb-6NxvzqfsHTubnPMPA-119">
          <mxGeometry relative="1" as="geometry" />
        </mxCell>
        <mxCell id="mb-6NxvzqfsHTubnPMPA-91" value="sucursales" style="whiteSpace=wrap;html=1;align=center;" vertex="1" parent="1">
          <mxGeometry x="-330" y="980" width="100" height="40" as="geometry" />
        </mxCell>
        <mxCell id="mb-6NxvzqfsHTubnPMPA-92" value="empleados" style="whiteSpace=wrap;html=1;align=center;" vertex="1" parent="1">
          <mxGeometry x="-30" y="980" width="100" height="40" as="geometry" />
        </mxCell>
        <mxCell id="mb-6NxvzqfsHTubnPMPA-93" value="revistas" style="whiteSpace=wrap;html=1;align=center;" vertex="1" parent="1">
          <mxGeometry x="-330" y="1280" width="100" height="40" as="geometry" />
        </mxCell>
        <mxCell id="mb-6NxvzqfsHTubnPMPA-94" value="nombre_pila" style="ellipse;whiteSpace=wrap;html=1;align=center;" vertex="1" parent="1">
          <mxGeometry x="240" y="1029" width="100" height="40" as="geometry" />
        </mxCell>
        <mxCell id="mb-6NxvzqfsHTubnPMPA-95" value="apellido_materno" style="ellipse;whiteSpace=wrap;html=1;align=center;" vertex="1" parent="1">
          <mxGeometry x="240" y="1129" width="100" height="40" as="geometry" />
        </mxCell>
        <mxCell id="mb-6NxvzqfsHTubnPMPA-98" value="tÃ­tulo" style="ellipse;whiteSpace=wrap;html=1;align=center;" vertex="1" parent="1">
          <mxGeometry x="-270" y="1410" width="100" height="40" as="geometry" />
        </mxCell>
        <mxCell id="mb-6NxvzqfsHTubnPMPA-99" value="numero_de_registro" style="ellipse;whiteSpace=wrap;html=1;align=center;fontStyle=4;" vertex="1" parent="1">
          <mxGeometry x="-250" y="1350" width="100" height="40" as="geometry" />
        </mxCell>
        <mxCell id="mb-6NxvzqfsHTubnPMPA-100" value="tipo" style="ellipse;shape=doubleEllipse;margin=3;whiteSpace=wrap;html=1;align=center;" vertex="1" parent="1">
          <mxGeometry x="-330" y="1530" width="100" height="40" as="geometry" />
        </mxCell>
        <mxCell id="mb-6NxvzqfsHTubnPMPA-101" value="telÃ©fono" style="ellipse;shape=doubleEllipse;margin=3;whiteSpace=wrap;html=1;align=center;" vertex="1" parent="1">
          <mxGeometry x="-30" y="1140" width="100" height="40" as="geometry" />
        </mxCell>
        <mxCell id="mb-6NxvzqfsHTubnPMPA-104" value="especialidad" style="ellipse;shape=doubleEllipse;margin=3;whiteSpace=wrap;html=1;align=center;" vertex="1" parent="1">
          <mxGeometry x="-739" y="1510" width="100" height="40" as="geometry" />
        </mxCell>
        <mxCell id="mb-6NxvzqfsHTubnPMPA-105" value="periodistas" style="whiteSpace=wrap;html=1;align=center;" vertex="1" parent="1">
          <mxGeometry x="-740" y="1270" width="100" height="40" as="geometry" />
        </mxCell>
        <mxCell id="mb-6NxvzqfsHTubnPMPA-107" value="apellidos_paterno" style="ellipse;whiteSpace=wrap;html=1;align=center;" vertex="1" parent="1">
          <mxGeometry x="-529" y="1390" width="100" height="40" as="geometry" />
        </mxCell>
        <mxCell id="mb-6NxvzqfsHTubnPMPA-108" value="nombre" style="ellipse;whiteSpace=wrap;html=1;align=center;" vertex="1" parent="1">
          <mxGeometry x="-689" y="1390" width="100" height="40" as="geometry" />
        </mxCell>
        <mxCell id="mb-6NxvzqfsHTubnPMPA-109" value="rfc" style="ellipse;whiteSpace=wrap;html=1;align=center;fontStyle=4;" vertex="1" parent="1">
          <mxGeometry x="-669" y="1330" width="100" height="40" as="geometry" />
        </mxCell>
        <mxCell id="mb-6NxvzqfsHTubnPMPA-111" value="nombre_pila" style="ellipse;whiteSpace=wrap;html=1;align=center;" vertex="1" parent="1">
          <mxGeometry x="-529" y="1340" width="100" height="40" as="geometry" />
        </mxCell>
        <mxCell id="mb-6NxvzqfsHTubnPMPA-112" value="apellido_materno" style="ellipse;whiteSpace=wrap;html=1;align=center;" vertex="1" parent="1">
          <mxGeometry x="-529" y="1440" width="100" height="40" as="geometry" />
        </mxCell>
        <mxCell id="mb-6NxvzqfsHTubnPMPA-113" value="telÃ©fono" style="ellipse;shape=doubleEllipse;margin=3;whiteSpace=wrap;html=1;align=center;" vertex="1" parent="1">
          <mxGeometry x="-709" y="1450" width="100" height="40" as="geometry" />
        </mxCell>
        <mxCell id="mb-6NxvzqfsHTubnPMPA-115" value="secciÃ³n_fija" style="whiteSpace=wrap;html=1;align=center;" vertex="1" parent="1">
          <mxGeometry x="117.5" y="1150" width="100" height="40" as="geometry" />
        </mxCell>
        <mxCell id="mb-6NxvzqfsHTubnPMPA-118" value="publica" style="shape=rhombus;perimeter=rhombusPerimeter;whiteSpace=wrap;html=1;align=center;" vertex="1" parent="1">
          <mxGeometry x="-340" y="1120" width="120" height="60" as="geometry" />
        </mxCell>
        <mxCell id="mb-6NxvzqfsHTubnPMPA-157" value="" style="edgeStyle=orthogonalEdgeStyle;rounded=0;orthogonalLoop=1;jettySize=auto;html=1;" edge="1" parent="1" source="mb-6NxvzqfsHTubnPMPA-119" target="mb-6NxvzqfsHTubnPMPA-92">
          <mxGeometry relative="1" as="geometry" />
        </mxCell>
        <mxCell id="mb-6NxvzqfsHTubnPMPA-119" value="tiene" style="shape=rhombus;perimeter=rhombusPerimeter;whiteSpace=wrap;html=1;align=center;" vertex="1" parent="1">
          <mxGeometry x="-195" y="970" width="120" height="60" as="geometry" />
        </mxCell>
        <mxCell id="mb-6NxvzqfsHTubnPMPA-120" value="tiene" style="shape=rhombus;perimeter=rhombusPerimeter;whiteSpace=wrap;html=1;align=center;" vertex="1" parent="1">
          <mxGeometry x="-520" y="970" width="120" height="60" as="geometry" />
        </mxCell>
        <mxCell id="mb-6NxvzqfsHTubnPMPA-121" value="informacion_ejemplares" style="shape=ext;margin=3;double=1;whiteSpace=wrap;html=1;align=center;" vertex="1" parent="1">
          <mxGeometry x="140" y="1350" width="100" height="40" as="geometry" />
        </mxCell>
        <mxCell id="mb-6NxvzqfsHTubnPMPA-122" value="numero_de_vendidos" style="ellipse;whiteSpace=wrap;html=1;align=center;" vertex="1" parent="1">
          <mxGeometry x="170" y="1520" width="100" height="40" as="geometry" />
        </mxCell>
        <mxCell id="mb-6NxvzqfsHTubnPMPA-124" value="tÃ­tulo" style="ellipse;whiteSpace=wrap;html=1;align=center;fontStyle=4;" vertex="1" parent="1">
          <mxGeometry x="162.5" y="1210" width="100" height="40" as="geometry" />
        </mxCell>
        <mxCell id="mb-6NxvzqfsHTubnPMPA-128" value="" style="endArrow=classic;html=1;rounded=0;entryX=0;entryY=0;entryDx=0;entryDy=0;" edge="1" parent="1" target="mb-6NxvzqfsHTubnPMPA-109">
          <mxGeometry width="50" height="50" relative="1" as="geometry">
            <mxPoint x="-654" y="1310" as="sourcePoint" />
            <mxPoint x="-654" y="1400" as="targetPoint" />
          </mxGeometry>
        </mxCell>
        <mxCell id="mb-6NxvzqfsHTubnPMPA-129" value="" style="endArrow=classic;html=1;rounded=0;entryX=0.001;entryY=0.431;entryDx=0;entryDy=0;entryPerimeter=0;" edge="1" parent="1" target="mb-6NxvzqfsHTubnPMPA-108">
          <mxGeometry width="50" height="50" relative="1" as="geometry">
            <mxPoint x="-689" y="1310" as="sourcePoint" />
            <mxPoint x="-689" y="1400" as="targetPoint" />
          </mxGeometry>
        </mxCell>
        <mxCell id="mb-6NxvzqfsHTubnPMPA-130" value="" style="endArrow=classic;html=1;rounded=0;entryX=0.072;entryY=0.236;entryDx=0;entryDy=0;entryPerimeter=0;" edge="1" parent="1" target="mb-6NxvzqfsHTubnPMPA-113">
          <mxGeometry width="50" height="50" relative="1" as="geometry">
            <mxPoint x="-701.72" y="1310" as="sourcePoint" />
            <mxPoint x="-701.72" y="1400" as="targetPoint" />
          </mxGeometry>
        </mxCell>
        <mxCell id="mb-6NxvzqfsHTubnPMPA-131" value="" style="endArrow=classic;html=1;rounded=0;entryX=0.175;entryY=0.121;entryDx=0;entryDy=0;entryPerimeter=0;" edge="1" parent="1" target="mb-6NxvzqfsHTubnPMPA-104">
          <mxGeometry width="50" height="50" relative="1" as="geometry">
            <mxPoint x="-719.4300000000001" y="1310" as="sourcePoint" />
            <mxPoint x="-719.4300000000001" y="1400" as="targetPoint" />
          </mxGeometry>
        </mxCell>
        <mxCell id="mb-6NxvzqfsHTubnPMPA-132" value="" style="endArrow=classic;html=1;rounded=0;entryX=0;entryY=0.5;entryDx=0;entryDy=0;exitX=1;exitY=0;exitDx=0;exitDy=0;" edge="1" parent="1" source="mb-6NxvzqfsHTubnPMPA-108" target="mb-6NxvzqfsHTubnPMPA-111">
          <mxGeometry width="50" height="50" relative="1" as="geometry">
            <mxPoint x="-589" y="1410" as="sourcePoint" />
            <mxPoint x="-589" y="1500" as="targetPoint" />
          </mxGeometry>
        </mxCell>
        <mxCell id="mb-6NxvzqfsHTubnPMPA-133" value="" style="endArrow=classic;html=1;rounded=0;entryX=0;entryY=0.5;entryDx=0;entryDy=0;" edge="1" parent="1" target="mb-6NxvzqfsHTubnPMPA-107">
          <mxGeometry width="50" height="50" relative="1" as="geometry">
            <mxPoint x="-589" y="1410" as="sourcePoint" />
            <mxPoint x="-589" y="1500" as="targetPoint" />
          </mxGeometry>
        </mxCell>
        <mxCell id="mb-6NxvzqfsHTubnPMPA-134" value="" style="endArrow=classic;html=1;rounded=0;entryX=-0.028;entryY=0.501;entryDx=0;entryDy=0;entryPerimeter=0;exitX=1;exitY=1;exitDx=0;exitDy=0;" edge="1" parent="1" source="mb-6NxvzqfsHTubnPMPA-108" target="mb-6NxvzqfsHTubnPMPA-112">
          <mxGeometry width="50" height="50" relative="1" as="geometry">
            <mxPoint x="-589" y="1410" as="sourcePoint" />
            <mxPoint x="-589" y="1500" as="targetPoint" />
          </mxGeometry>
        </mxCell>
        <mxCell id="mb-6NxvzqfsHTubnPMPA-135" value="" style="endArrow=classic;html=1;rounded=0;entryX=0.5;entryY=0;entryDx=0;entryDy=0;" edge="1" parent="1" target="mb-6NxvzqfsHTubnPMPA-118">
          <mxGeometry width="50" height="50" relative="1" as="geometry">
            <mxPoint x="-280.22" y="1020" as="sourcePoint" />
            <mxPoint x="-280.22" y="1110" as="targetPoint" />
          </mxGeometry>
        </mxCell>
        <mxCell id="mb-6NxvzqfsHTubnPMPA-136" value="" style="endArrow=classic;html=1;rounded=0;" edge="1" parent="1">
          <mxGeometry width="50" height="50" relative="1" as="geometry">
            <mxPoint x="-320" y="1320" as="sourcePoint" />
            <mxPoint x="-320" y="1540" as="targetPoint" />
          </mxGeometry>
        </mxCell>
        <mxCell id="mb-6NxvzqfsHTubnPMPA-137" value="" style="endArrow=classic;html=1;rounded=0;entryX=0.207;entryY=0.123;entryDx=0;entryDy=0;entryPerimeter=0;" edge="1" parent="1" target="mb-6NxvzqfsHTubnPMPA-86">
          <mxGeometry width="50" height="50" relative="1" as="geometry">
            <mxPoint x="-290.22" y="1320" as="sourcePoint" />
            <mxPoint x="-290" y="1470" as="targetPoint" />
          </mxGeometry>
        </mxCell>
        <mxCell id="mb-6NxvzqfsHTubnPMPA-138" value="" style="endArrow=classic;html=1;rounded=0;entryX=0;entryY=0.5;entryDx=0;entryDy=0;" edge="1" parent="1" target="mb-6NxvzqfsHTubnPMPA-98">
          <mxGeometry width="50" height="50" relative="1" as="geometry">
            <mxPoint x="-270" y="1320" as="sourcePoint" />
            <mxPoint x="-270" y="1410" as="targetPoint" />
          </mxGeometry>
        </mxCell>
        <mxCell id="mb-6NxvzqfsHTubnPMPA-139" value="" style="endArrow=classic;html=1;rounded=0;entryX=0;entryY=0.5;entryDx=0;entryDy=0;" edge="1" parent="1" target="mb-6NxvzqfsHTubnPMPA-99">
          <mxGeometry width="50" height="50" relative="1" as="geometry">
            <mxPoint x="-250" y="1320" as="sourcePoint" />
            <mxPoint x="-250" y="1410" as="targetPoint" />
          </mxGeometry>
        </mxCell>
        <mxCell id="mb-6NxvzqfsHTubnPMPA-141" value="" style="endArrow=classic;html=1;rounded=0;entryX=0.5;entryY=0;entryDx=0;entryDy=0;" edge="1" parent="1" target="mb-6NxvzqfsHTubnPMPA-93">
          <mxGeometry width="50" height="50" relative="1" as="geometry">
            <mxPoint x="-280" y="1180" as="sourcePoint" />
            <mxPoint x="-280" y="1269.9999999999998" as="targetPoint" />
          </mxGeometry>
        </mxCell>
        <mxCell id="mb-6NxvzqfsHTubnPMPA-142" value="" style="endArrow=classic;html=1;rounded=0;exitX=0.25;exitY=1;exitDx=0;exitDy=0;entryX=0.323;entryY=-0.007;entryDx=0;entryDy=0;entryPerimeter=0;" edge="1" parent="1" source="mb-6NxvzqfsHTubnPMPA-115" target="mb-6NxvzqfsHTubnPMPA-70">
          <mxGeometry width="50" height="50" relative="1" as="geometry">
            <mxPoint x="140" y="1220" as="sourcePoint" />
            <mxPoint x="140" y="1300" as="targetPoint" />
          </mxGeometry>
        </mxCell>
        <mxCell id="mb-6NxvzqfsHTubnPMPA-143" value="" style="endArrow=classic;html=1;rounded=0;entryX=0.203;entryY=0.139;entryDx=0;entryDy=0;entryPerimeter=0;" edge="1" parent="1" target="mb-6NxvzqfsHTubnPMPA-124">
          <mxGeometry width="50" height="50" relative="1" as="geometry">
            <mxPoint x="182.5" y="1190" as="sourcePoint" />
            <mxPoint x="182.5" y="1210" as="targetPoint" />
          </mxGeometry>
        </mxCell>
        <mxCell id="mb-6NxvzqfsHTubnPMPA-144" value="" style="endArrow=classic;html=1;rounded=0;entryX=0.096;entryY=0.25;entryDx=0;entryDy=0;entryPerimeter=0;" edge="1" parent="1" target="mb-6NxvzqfsHTubnPMPA-122">
          <mxGeometry width="50" height="50" relative="1" as="geometry">
            <mxPoint x="179.57" y="1390" as="sourcePoint" />
            <mxPoint x="179.57" y="1480" as="targetPoint" />
          </mxGeometry>
        </mxCell>
        <mxCell id="mb-6NxvzqfsHTubnPMPA-145" value="" style="endArrow=classic;html=1;rounded=0;" edge="1" parent="1">
          <mxGeometry width="50" height="50" relative="1" as="geometry">
            <mxPoint x="200" y="1390" as="sourcePoint" />
            <mxPoint x="200" y="1479.9999999999998" as="targetPoint" />
          </mxGeometry>
        </mxCell>
        <mxCell id="mb-6NxvzqfsHTubnPMPA-146" value="" style="endArrow=classic;html=1;rounded=0;" edge="1" parent="1">
          <mxGeometry width="50" height="50" relative="1" as="geometry">
            <mxPoint x="229.78" y="1390" as="sourcePoint" />
            <mxPoint x="230" y="1420" as="targetPoint" />
          </mxGeometry>
        </mxCell>
        <mxCell id="mb-6NxvzqfsHTubnPMPA-148" value="" style="endArrow=classic;html=1;rounded=0;entryX=0.1;entryY=0.25;entryDx=0;entryDy=0;entryPerimeter=0;" edge="1" parent="1" target="mb-6NxvzqfsHTubnPMPA-101">
          <mxGeometry width="50" height="50" relative="1" as="geometry">
            <mxPoint x="-20.22" y="1020" as="sourcePoint" />
            <mxPoint x="-20.22" y="1109.9999999999998" as="targetPoint" />
          </mxGeometry>
        </mxCell>
        <mxCell id="mb-6NxvzqfsHTubnPMPA-149" value="" style="endArrow=classic;html=1;rounded=0;entryX=0.08;entryY=0.282;entryDx=0;entryDy=0;entryPerimeter=0;" edge="1" parent="1" target="mb-6NxvzqfsHTubnPMPA-89">
          <mxGeometry width="50" height="50" relative="1" as="geometry">
            <mxPoint x="10" y="1020" as="sourcePoint" />
            <mxPoint x="10" y="1070" as="targetPoint" />
          </mxGeometry>
        </mxCell>
        <mxCell id="mb-6NxvzqfsHTubnPMPA-150" value="" style="endArrow=classic;html=1;rounded=0;entryX=0.302;entryY=-0.013;entryDx=0;entryDy=0;entryPerimeter=0;" edge="1" parent="1" target="mb-6NxvzqfsHTubnPMPA-90">
          <mxGeometry width="50" height="50" relative="1" as="geometry">
            <mxPoint x="49.56999999999999" y="1020" as="sourcePoint" />
            <mxPoint x="50" y="1040" as="targetPoint" />
          </mxGeometry>
        </mxCell>
        <mxCell id="mb-6NxvzqfsHTubnPMPA-152" value="" style="endArrow=classic;html=1;rounded=0;" edge="1" parent="1">
          <mxGeometry width="50" height="50" relative="1" as="geometry">
            <mxPoint x="-260.22" y="980" as="sourcePoint" />
            <mxPoint x="-260" y="940" as="targetPoint" />
          </mxGeometry>
        </mxCell>
        <mxCell id="mb-6NxvzqfsHTubnPMPA-153" value="" style="endArrow=classic;html=1;rounded=0;entryX=0.201;entryY=0.913;entryDx=0;entryDy=0;entryPerimeter=0;" edge="1" parent="1" target="mb-6NxvzqfsHTubnPMPA-72">
          <mxGeometry width="50" height="50" relative="1" as="geometry">
            <mxPoint x="-290.22" y="980" as="sourcePoint" />
            <mxPoint x="-290.22" y="890" as="targetPoint" />
          </mxGeometry>
        </mxCell>
        <mxCell id="mb-6NxvzqfsHTubnPMPA-154" value="" style="endArrow=classic;html=1;rounded=0;entryX=0.188;entryY=0.916;entryDx=0;entryDy=0;entryPerimeter=0;" edge="1" parent="1" target="mb-6NxvzqfsHTubnPMPA-82">
          <mxGeometry width="50" height="50" relative="1" as="geometry">
            <mxPoint x="-320" y="980" as="sourcePoint" />
            <mxPoint x="-320" y="890" as="targetPoint" />
          </mxGeometry>
        </mxCell>
        <mxCell id="mb-6NxvzqfsHTubnPMPA-158" value="" style="endArrow=classic;html=1;rounded=0;exitX=1;exitY=0.25;exitDx=0;exitDy=0;entryX=0;entryY=0.5;entryDx=0;entryDy=0;" edge="1" parent="1" source="mb-6NxvzqfsHTubnPMPA-93" target="mb-6NxvzqfsHTubnPMPA-159">
          <mxGeometry width="50" height="50" relative="1" as="geometry">
            <mxPoint x="-145.22" y="1310" as="sourcePoint" />
            <mxPoint x="-110" y="1260" as="targetPoint" />
          </mxGeometry>
        </mxCell>
        <mxCell id="mb-6NxvzqfsHTubnPMPA-159" value="tiene" style="shape=rhombus;perimeter=rhombusPerimeter;whiteSpace=wrap;html=1;align=center;" vertex="1" parent="1">
          <mxGeometry x="-110" y="1210" width="120" height="60" as="geometry" />
        </mxCell>
        <mxCell id="mb-6NxvzqfsHTubnPMPA-162" value="" style="endArrow=classic;html=1;rounded=0;exitX=1;exitY=0.5;exitDx=0;exitDy=0;entryX=-0.025;entryY=0.5;entryDx=0;entryDy=0;entryPerimeter=0;" edge="1" parent="1" source="mb-6NxvzqfsHTubnPMPA-159" target="mb-6NxvzqfsHTubnPMPA-115">
          <mxGeometry width="50" height="50" relative="1" as="geometry">
            <mxPoint x="-120" y="1250" as="sourcePoint" />
            <mxPoint x="-70" y="1330" as="targetPoint" />
          </mxGeometry>
        </mxCell>
        <mxCell id="mb-6NxvzqfsHTubnPMPA-164" value="se_almacena" style="shape=rhombus;double=1;perimeter=rhombusPerimeter;whiteSpace=wrap;html=1;align=center;" vertex="1" parent="1">
          <mxGeometry x="-30" y="1340" width="120" height="60" as="geometry" />
        </mxCell>
        <mxCell id="mb-6NxvzqfsHTubnPMPA-165" value="" style="endArrow=classic;html=1;rounded=0;exitX=1;exitY=0.75;exitDx=0;exitDy=0;entryX=0;entryY=0.5;entryDx=0;entryDy=0;" edge="1" parent="1" source="mb-6NxvzqfsHTubnPMPA-93" target="mb-6NxvzqfsHTubnPMPA-164">
          <mxGeometry width="50" height="50" relative="1" as="geometry">
            <mxPoint x="-75" y="1410" as="sourcePoint" />
            <mxPoint x="-75" y="1320" as="targetPoint" />
          </mxGeometry>
        </mxCell>
        <mxCell id="mb-6NxvzqfsHTubnPMPA-166" value="" style="endArrow=classic;html=1;rounded=0;exitX=1;exitY=0.5;exitDx=0;exitDy=0;" edge="1" parent="1" source="mb-6NxvzqfsHTubnPMPA-164" target="mb-6NxvzqfsHTubnPMPA-121">
          <mxGeometry width="50" height="50" relative="1" as="geometry">
            <mxPoint x="90" y="1520" as="sourcePoint" />
            <mxPoint x="90" y="1430" as="targetPoint" />
          </mxGeometry>
        </mxCell>
        <mxCell id="mb-6NxvzqfsHTubnPMPA-167" value="" style="endArrow=classic;html=1;rounded=0;entryX=0;entryY=0.5;entryDx=0;entryDy=0;" edge="1" parent="1" source="mb-6NxvzqfsHTubnPMPA-89" target="mb-6NxvzqfsHTubnPMPA-94">
          <mxGeometry width="50" height="50" relative="1" as="geometry">
            <mxPoint x="212.29" y="970" as="sourcePoint" />
            <mxPoint x="212.29" y="1050" as="targetPoint" />
          </mxGeometry>
        </mxCell>
        <mxCell id="mb-6NxvzqfsHTubnPMPA-168" value="" style="endArrow=classic;html=1;rounded=0;exitX=0.931;exitY=0.724;exitDx=0;exitDy=0;exitPerimeter=0;entryX=0;entryY=0.5;entryDx=0;entryDy=0;" edge="1" parent="1" source="mb-6NxvzqfsHTubnPMPA-89" target="mb-6NxvzqfsHTubnPMPA-95">
          <mxGeometry width="50" height="50" relative="1" as="geometry">
            <mxPoint x="310" y="1170" as="sourcePoint" />
            <mxPoint x="310" y="1250" as="targetPoint" />
          </mxGeometry>
        </mxCell>
        <mxCell id="mb-6NxvzqfsHTubnPMPA-169" value="" style="endArrow=classic;html=1;rounded=0;exitX=1;exitY=0.5;exitDx=0;exitDy=0;entryX=0;entryY=0.5;entryDx=0;entryDy=0;" edge="1" parent="1" source="mb-6NxvzqfsHTubnPMPA-89" target="mb-6NxvzqfsHTubnPMPA-88">
          <mxGeometry width="50" height="50" relative="1" as="geometry">
            <mxPoint x="162.5" y="840" as="sourcePoint" />
            <mxPoint x="162.5" y="920" as="targetPoint" />
          </mxGeometry>
        </mxCell>
        <mxCell id="mb-6NxvzqfsHTubnPMPA-171" value="tiene" style="shape=rhombus;perimeter=rhombusPerimeter;whiteSpace=wrap;html=1;align=center;" vertex="1" parent="1">
          <mxGeometry x="-740" y="1090" width="120" height="60" as="geometry" />
        </mxCell>
        <mxCell id="mb-6NxvzqfsHTubnPMPA-172" value="" style="endArrow=classic;html=1;rounded=0;exitX=0.5;exitY=1;exitDx=0;exitDy=0;entryX=0.5;entryY=0;entryDx=0;entryDy=0;" edge="1" parent="1" source="mb-6NxvzqfsHTubnPMPA-56" target="mb-6NxvzqfsHTubnPMPA-171">
          <mxGeometry width="50" height="50" relative="1" as="geometry">
            <mxPoint x="-631" y="1069" as="sourcePoint" />
            <mxPoint x="-581" y="1019" as="targetPoint" />
          </mxGeometry>
        </mxCell>
        <mxCell id="mb-6NxvzqfsHTubnPMPA-173" value="" style="endArrow=classic;html=1;rounded=0;exitX=0.5;exitY=1;exitDx=0;exitDy=0;entryX=0.584;entryY=-0.025;entryDx=0;entryDy=0;entryPerimeter=0;" edge="1" parent="1" source="mb-6NxvzqfsHTubnPMPA-171" target="mb-6NxvzqfsHTubnPMPA-105">
          <mxGeometry width="50" height="50" relative="1" as="geometry">
            <mxPoint x="-630" y="1190" as="sourcePoint" />
            <mxPoint x="-580" y="1140" as="targetPoint" />
          </mxGeometry>
        </mxCell>
        <mxCell id="mb-6NxvzqfsHTubnPMPA-174" value="1" style="text;html=1;align=center;verticalAlign=middle;resizable=0;points=[];autosize=1;strokeColor=none;fillColor=none;" vertex="1" parent="1">
          <mxGeometry x="-615" y="975" width="30" height="30" as="geometry" />
        </mxCell>
        <mxCell id="mb-6NxvzqfsHTubnPMPA-175" value="m" style="text;html=1;align=center;verticalAlign=middle;resizable=0;points=[];autosize=1;strokeColor=none;fillColor=none;" vertex="1" parent="1">
          <mxGeometry x="-375" y="975" width="30" height="30" as="geometry" />
        </mxCell>
      </root>
    </mxGraphModel>
  </diagram>
</mxfile>
